<svg xmlns="http://www.w3.org/2000/svg" width="32" height="41" fill="none" viewBox="0 0 32 41">
  <path fill="#D1D0C5" d="M16 28.188c4.82 0 8.727-3.441 8.727-7.688V7.687C24.727 3.441 20.821 0 16 0c-4.82 0-8.727 3.441-8.727 7.688V20.5c0 4.244 3.827 7.688 8.727 7.688Zm13.818-12.813c-1.209 0-2.182.857-2.182 1.85V20.5c0 5.872-5.633 10.602-12.39 10.226-6.008-.334-10.882-5.332-10.882-10.634v-2.867c0-.993-.978-1.85-2.182-1.85-1.205 0-2.182.857-2.182 1.85v2.574c0 7.18 5.815 13.582 13.818 14.55v2.807h-3.636c-1.654 0-2.986 1.216-2.906 2.688.036.66.706 1.156 1.451 1.156h14.546c.747 0 1.415-.498 1.45-1.156.077-1.47-1.25-2.688-2.905-2.688h-3.636v-2.704C25.972 33.512 32 27.619 32 20.5v-3.275c0-.993-.973-1.85-2.182-1.85Z"/>
</svg>
