<svg xmlns="http://www.w3.org/2000/svg" width="66" height="57" fill="none" viewBox="0 0 66 57">
  <mask id="a" width="66" height="57" x="0" y="0" maskUnits="userSpaceOnUse" style="mask-type:alpha">
    <path fill="#000" d="m60.14 5.305-.305-.317c-5.84-5.967-14.98-6.564-21.531-1.88l4.354 13.128-12.187 8.125 6.093 16.25-18.28-18.281 12.187-8.125L26.84 3.223C20.276-1.576 11.047-1.017 5.169 5l-.305.305c-6.182 6.322-6.449 16.39-.927 23.13l26.927 27.753a2.262 2.262 0 0 0 3.263 0l26.94-27.765c5.522-6.728 5.255-16.796-.927-23.118Z"/>
  </mask>
  <g mask="url(#a)">
    <path fill="#D1D0C5" d="M-3-2h72v60H-3V-2Z"/>
  </g>
</svg>
